<svg width="1024" height="894" viewBox="0 0 1024 894" fill="none" xmlns="http://www.w3.org/2000/svg">
<g clip-path="url(#clip0)">
<rect width="1024" height="894" fill="white"/>
<mask id="mask0" mask-type="alpha" maskUnits="userSpaceOnUse" x="31" y="47" width="657" height="703">
<rect x="31.8222" y="47.1445" width="655.467" height="702.803" fill="#C4C4C4"/>
</mask>
<g mask="url(#mask0)">
</g>
<g clip-path="url(#clip1)">
<path d="M962.089 416.015L939.625 490.829" stroke="#5D5D5D" stroke-width="4"/>
<path d="M959.498 415.237L963.535 416.449L964.624 416.776L961.987 421.627L959.032 420.74L959.026 420.737L959.498 415.237Z" fill="#707070"/>
<path d="M959.717 415.56L959.288 420.56L961.866 421.333L964.263 416.925L963.464 416.684L959.717 415.56ZM959.28 414.915L963.606 416.214L964.983 416.628L962.107 421.919L958.961 420.975L958.764 420.916L959.28 414.915Z" fill="#707070"/>
<path d="M903.686 581.777C909.335 579.106 912.051 572.162 909.755 566.267L907.473 560.41L915.7 573.961C918.942 579.302 925.757 580.67 930.92 577.016C936.083 573.361 937.644 566.071 934.4 560.729L930.925 555.006L939.841 564.049C944.162 568.431 951.153 568.122 955.454 563.361C959.756 558.599 959.741 551.186 955.419 546.804L908.99 499.719C904.669 495.337 897.679 495.644 893.377 500.407C891.188 502.841 890.036 506.036 890.17 509.308C890.086 509.363 890.001 509.421 889.919 509.48C888.039 510.819 886.577 512.664 885.705 514.8C883.102 513.917 880.255 514.094 877.78 515.294C872.132 517.965 869.414 524.908 871.711 530.803L889.299 575.939C889.87 577.467 890.785 578.843 891.971 579.962C893.159 581.079 894.586 581.911 896.145 582.39C898.648 583.132 901.337 582.913 903.686 581.777Z" fill="#374897"/>
<path d="M735.795 531.364C732.553 526.023 734.11 518.731 739.273 515.078L744.405 511.446L730.074 518.223C724.426 520.894 717.985 518.281 715.689 512.387C713.393 506.492 716.107 499.548 721.758 496.878L727.81 494.015L715.386 496.65C709.366 497.927 703.702 493.818 702.736 487.474C701.768 481.13 705.865 474.952 711.886 473.675L776.572 459.957C782.592 458.68 788.256 462.788 789.224 469.131C789.71 472.369 788.911 475.67 786.996 478.327C787.036 478.42 787.075 478.515 787.111 478.609C787.943 480.762 788.145 483.107 787.696 485.371C790.356 486.068 792.635 487.783 794.04 490.146C797.282 495.488 795.725 502.778 790.56 506.433L751.016 534.415C749.699 535.374 748.178 536.019 746.571 536.299C744.965 536.578 743.316 536.485 741.752 536.027C739.255 535.269 737.131 533.606 735.795 531.364Z" fill="#374897"/>
<path d="M822.087 549.147C863.795 561.671 908.424 535.802 921.767 491.365C935.11 446.928 912.117 400.752 870.409 388.228C828.701 375.704 784.072 401.574 770.729 446.011C757.385 490.448 780.379 536.623 822.087 549.147Z" fill="#BD3A66"/>
<path d="M805.836 602.926C802.645 602.248 793.091 599.915 772.316 592.721C745.701 583.507 746.039 551.805 746.039 551.805L773.305 399.849L944.859 451.363L883.903 593.203C883.903 593.203 866.72 619.846 839.432 612.878C830.336 610.554 823.435 608.617 818.278 607.069C811.36 604.989 807.578 603.609 805.836 602.926Z" fill="#4054B2"/>
<path d="M845.834 470.862C837.94 478.087 827.893 482.521 817.236 483.485C806.58 484.449 795.9 481.889 786.837 476.199C777.776 470.51 770.831 462.002 767.069 451.985C763.307 441.967 762.937 430.992 766.015 420.743C769.092 410.494 775.448 401.539 784.106 395.251C792.763 388.962 803.245 385.689 813.943 385.932C824.641 386.175 834.963 389.923 843.327 396.598C851.69 403.273 857.631 412.509 860.239 422.887C866.44 417.17 874.022 413.166 882.24 411.27C890.458 409.374 899.028 409.651 907.106 412.072C932.832 419.797 947.394 447.02 939.629 472.876C931.865 498.733 904.716 513.432 878.99 505.706C870.913 503.277 863.609 498.786 857.795 492.677C851.982 486.567 847.859 479.048 845.834 470.862Z" fill="#6377D5"/>
<path d="M855.942 437.303L855.916 437.306L855.922 437.287L790.492 384.219L785.541 360.81L956.836 412.247L939.81 429.056L855.967 437.301L855.962 437.32L855.942 437.303Z" fill="#4E64C8"/>
<path d="M871.187 386.535L871.211 386.536L871.206 386.549L939.879 428.822L946.956 445.152L775.66 393.715L790.56 383.985L871.162 386.536L871.165 386.524L871.187 386.535Z" fill="#4E64C8"/>
<path d="M881.541 351.424L972.994 416.969L860.56 421.292L769.109 355.747L881.541 351.424Z" fill="#374897"/>
<path d="M803.661 471.288C820.292 476.282 837.824 466.849 842.818 450.218C847.812 433.586 838.378 416.056 821.747 411.062C805.116 406.067 787.584 415.502 782.59 432.133C777.596 448.764 787.03 466.295 803.661 471.288Z" fill="white"/>
<path d="M879.886 494.178C896.517 499.171 914.049 489.738 919.043 473.107C924.036 456.476 914.603 438.945 897.972 433.95C881.341 428.956 863.809 438.391 858.815 455.022C853.821 471.653 863.255 489.184 879.886 494.178Z" fill="white"/>
<path d="M803.661 471.288C799.633 470.087 795.888 468.085 792.651 465.403C789.526 462.817 786.934 459.649 785.017 456.075C783.09 452.506 781.874 448.597 781.437 444.565C780.981 440.385 781.373 436.157 782.59 432.133C783.039 430.636 783.598 429.176 784.262 427.761C783.226 435.212 784.881 442.786 788.929 449.126C792.977 455.466 799.152 460.153 806.345 462.349C813.559 464.48 821.296 463.969 828.166 460.909C835.037 457.847 840.591 452.436 843.83 445.649C843.606 447.195 843.267 448.722 842.818 450.218C841.616 454.247 839.615 457.992 836.932 461.229C834.345 464.353 831.177 466.946 827.604 468.862C824.035 470.79 820.126 472.005 816.093 472.442C811.914 472.898 807.686 472.506 803.661 471.288Z" fill="#F3F1F1" fill-opacity="0.56"/>
<path d="M879.886 494.178C875.858 492.976 872.113 490.974 868.876 488.292C865.751 485.706 863.159 482.538 861.242 478.964C859.315 475.395 858.1 471.486 857.663 467.454C857.206 463.274 857.599 459.045 858.815 455.022C859.264 453.525 859.823 452.065 860.487 450.65C859.451 458.1 861.106 465.675 865.154 472.015C869.201 478.354 875.376 483.042 882.571 485.237C889.784 487.369 897.52 486.858 904.391 483.798C911.262 480.737 916.816 475.326 920.056 468.538C919.83 470.084 919.492 471.61 919.043 473.107C917.841 477.136 915.839 480.881 913.156 484.117C910.571 487.242 907.402 489.834 903.829 491.751C900.26 493.678 896.351 494.894 892.319 495.331C888.139 495.787 883.91 495.395 879.886 494.178Z" fill="#F3F1F1" fill-opacity="0.56"/>
<path d="M887.79 498.603C905.433 503.901 924.096 493.857 929.393 476.215L929.597 475.512L929.605 475.515L939.001 444.22L907.009 434.613L907.034 434.53L907.005 434.612C892.136 430.146 875.845 436.717 868.269 450.233L866.472 453.439L865.402 457C860.105 474.642 870.148 493.306 887.79 498.603ZM795.097 470.769C812.74 476.066 831.403 466.024 836.7 448.381L837.769 444.821L838.036 441.154C839.16 425.702 829.186 411.247 813.861 406.646C813.858 406.644 813.855 406.643 813.854 406.643L813.855 406.64L782.317 397.17L774.97 421.638L772.899 428.534L772.905 428.535L772.899 428.534L772.881 428.594L772.887 428.595L772.881 428.594L772.86 428.662L772.865 428.663L772.709 429.166C767.412 446.807 777.455 465.471 795.097 470.769ZM885.106 507.542C862.499 500.754 849.674 476.923 856.463 454.316L845.641 451.065C838.852 473.673 815.021 486.497 792.413 479.709C769.804 472.92 756.981 449.088 763.77 426.481C763.834 426.267 763.9 426.052 763.968 425.84C763.929 425.961 763.892 426.08 763.854 426.202L763.853 426.201L763.77 426.481L763.346 427.893L754.876 425.349L757.56 416.409L766.03 418.952L776.062 385.545L816.994 397.836C816.797 397.777 816.6 397.719 816.404 397.664C816.602 397.721 816.8 397.778 816.997 397.838C836.535 403.704 848.765 422.298 847.346 441.831L860.126 445.669C869.703 428.584 890.152 419.804 909.691 425.671C909.887 425.731 910.085 425.792 910.281 425.853C910.087 425.792 909.891 425.731 909.693 425.672L950.626 437.963L938.417 478.62V478.619C938.476 478.417 938.533 478.217 938.589 478.015C938.507 478.31 938.422 478.606 938.334 478.9C931.545 501.508 907.714 514.331 885.106 507.542ZM763.997 425.748C763.994 425.754 763.993 425.76 763.991 425.766C763.993 425.76 763.994 425.754 763.997 425.748ZM764.044 425.602C764.035 425.629 764.027 425.655 764.018 425.682C764.027 425.655 764.035 425.629 764.044 425.602ZM946.803 481.443L938.334 478.9L941.018 469.959L949.488 472.502L946.803 481.443Z" fill="#354AAC"/>
<path d="M852.216 483.188L852.393 483.241L852.296 483.356L852.334 483.439L852.247 483.413L836.593 501.696L833.599 477.814L833.513 477.787L833.591 477.74L833.572 477.591L833.749 477.644L846.06 470.171L852.216 483.188Z" fill="#FFDB6D"/>
<path d="M779.257 618.41C778.637 617.494 778.213 616.461 778.009 615.375C777.742 614.048 777.655 612.693 777.75 611.345C777.82 610.226 777.982 609.116 778.234 608.023L776.501 607.503C776.11 608.553 775.634 609.569 775.076 610.541C774.413 611.72 773.594 612.803 772.64 613.762C771.872 614.556 770.948 615.185 769.926 615.608C769.08 615.983 768.127 616.042 767.24 615.777C766.354 615.51 765.591 614.935 765.09 614.156C764.471 613.24 764.047 612.207 763.842 611.12C763.575 609.795 763.488 608.44 763.584 607.091C763.654 605.972 763.816 604.861 764.068 603.77L761.79 603.086C761.399 604.136 760.923 605.152 760.365 606.124C759.701 607.302 758.882 608.386 757.929 609.345C757.161 610.139 756.236 610.768 755.215 611.19C754.364 611.549 753.417 611.608 752.529 611.358C751.65 611.077 750.892 610.506 750.379 609.738C749.76 608.822 749.335 607.789 749.131 606.703C748.865 605.377 748.776 604.021 748.872 602.672C748.942 601.555 749.103 600.443 749.356 599.352L749.31 599.337C749.37 599.143 749.434 598.95 749.501 598.757C749.56 598.529 749.624 598.299 749.69 598.07L749.744 598.086C750.623 595.765 751.882 593.607 753.469 591.698C755.261 589.536 757.45 587.734 759.917 586.391C762.36 585.05 765.039 584.197 767.808 583.879C770.659 583.556 773.544 583.814 776.292 584.64C779.039 585.464 781.592 586.839 783.792 588.679C785.927 590.469 787.694 592.657 788.995 595.122C790.313 597.603 791.147 600.314 791.451 603.107C791.725 605.573 791.586 608.068 791.042 610.489L791.095 610.506C791.025 610.733 790.951 610.959 790.874 611.182C790.823 611.38 790.77 611.577 790.715 611.772L790.668 611.759C790.277 612.809 789.8 613.825 789.242 614.797C788.579 615.975 787.759 617.058 786.807 618.018C786.038 618.811 785.114 619.44 784.093 619.862C783.247 620.237 782.293 620.296 781.406 620.03C780.52 619.764 779.757 619.188 779.257 618.41Z" fill="#FFDB6D"/>
<path d="M844.659 638.049C844.04 637.133 843.616 636.101 843.412 635.013C843.145 633.688 843.058 632.333 843.153 630.983C843.223 629.866 843.385 628.754 843.637 627.663L841.904 627.143C841.513 628.193 841.036 629.209 840.479 630.181C839.815 631.359 838.996 632.443 838.043 633.402C837.275 634.196 836.35 634.824 835.329 635.247C834.483 635.622 833.53 635.682 832.642 635.415C831.757 635.148 830.994 634.574 830.493 633.796C829.874 632.88 829.449 631.846 829.245 630.76C828.978 629.434 828.891 628.078 828.987 626.73C829.057 625.612 829.219 624.501 829.471 623.409L827.193 622.726C826.802 623.776 826.326 624.792 825.768 625.764C825.104 626.942 824.285 628.025 823.333 628.984C822.564 629.779 821.639 630.407 820.618 630.83C819.767 631.187 818.82 631.247 817.932 630.998C817.053 630.716 816.295 630.145 815.782 629.377C815.163 628.462 814.738 627.429 814.534 626.342C814.267 625.017 814.179 623.661 814.275 622.312C814.345 621.193 814.506 620.083 814.759 618.991L814.712 618.977C814.773 618.783 814.837 618.589 814.904 618.397C814.963 618.167 815.027 617.938 815.093 617.709L815.147 617.726C816.026 615.405 817.285 613.246 818.872 611.338C820.664 609.175 822.853 607.374 825.319 606.03C827.763 604.69 830.442 603.837 833.211 603.518C836.062 603.195 838.947 603.454 841.695 604.278C844.442 605.104 846.994 606.477 849.195 608.318C851.33 610.109 853.097 612.297 854.398 614.762C855.716 617.243 856.55 619.952 856.854 622.745C857.127 625.212 856.989 627.707 856.444 630.129L856.498 630.145C856.428 630.373 856.354 630.598 856.277 630.822C856.226 631.018 856.173 631.215 856.118 631.412L856.071 631.397C855.68 632.447 855.203 633.464 854.645 634.435C853.982 635.614 853.162 636.697 852.21 637.656C851.44 638.451 850.517 639.078 849.496 639.502C848.65 639.876 847.696 639.935 846.809 639.67C845.922 639.403 845.16 638.828 844.659 638.049Z" fill="#FFDB6D"/>
<path opacity="0.17" d="M804.504 521.593C803.764 521.374 803.094 520.965 802.563 520.405C802.032 519.845 801.658 519.155 801.479 518.404L798.706 507.015C798.553 506.408 798.532 505.774 798.645 505.158C798.76 504.542 799.006 503.958 799.367 503.446C799.726 502.928 800.191 502.492 800.732 502.169C801.274 501.846 801.878 501.64 802.504 501.568L803.567 511.055C803.664 511.916 804.011 512.731 804.566 513.396C805.122 514.061 805.86 514.548 806.689 514.798C807.52 515.047 808.404 515.047 809.235 514.797C810.064 514.548 810.803 514.059 811.358 513.394L817.397 506.153C817.839 506.572 818.19 507.077 818.429 507.637C818.668 508.197 818.79 508.801 818.787 509.41C818.786 510.014 818.661 510.611 818.417 511.163C818.173 511.716 817.817 512.212 817.372 512.619L808.785 520.598C808.222 521.127 807.529 521.496 806.777 521.671C806.026 521.846 805.241 521.818 804.504 521.593Z" fill="white"/>
<path opacity="0.17" d="M828.549 528.812C827.808 528.595 827.139 528.185 826.608 527.626C826.077 527.066 825.703 526.376 825.524 525.625L822.749 514.234C822.596 513.627 822.577 512.994 822.69 512.378C822.805 511.763 823.05 511.178 823.411 510.666C823.771 510.148 824.236 509.713 824.777 509.389C825.318 509.065 825.922 508.86 826.548 508.789L827.612 518.275C827.709 519.137 828.056 519.95 828.611 520.615C829.167 521.281 829.905 521.769 830.734 522.018C831.565 522.267 832.449 522.266 833.28 522.018C834.109 521.768 834.847 521.28 835.403 520.614L841.442 513.373C841.884 513.793 842.235 514.297 842.474 514.857C842.713 515.418 842.835 516.021 842.831 516.63C842.831 517.233 842.704 517.831 842.462 518.384C842.218 518.936 841.862 519.432 841.417 519.84L832.829 527.819C832.266 528.347 831.574 528.717 830.822 528.891C830.071 529.066 829.286 529.039 828.549 528.812Z" fill="white"/>
<path opacity="0.17" d="M852.594 536.033C851.853 535.815 851.183 535.406 850.652 534.846C850.121 534.286 849.748 533.595 849.569 532.845L846.795 521.455C846.641 520.847 846.621 520.214 846.735 519.598C846.849 518.982 847.095 518.398 847.456 517.886C847.816 517.369 848.281 516.933 848.822 516.609C849.363 516.286 849.966 516.081 850.593 516.008L851.657 525.496C851.754 526.356 852.101 527.17 852.656 527.836C853.21 528.501 853.949 528.989 854.779 529.238C855.61 529.487 856.494 529.487 857.323 529.237C858.154 528.987 858.892 528.5 859.446 527.835L865.487 520.593C865.929 521.012 866.28 521.518 866.519 522.078C866.758 522.638 866.88 523.241 866.876 523.85C866.876 524.454 866.749 525.05 866.505 525.603C866.263 526.156 865.907 526.652 865.462 527.06L856.873 535.039C856.311 535.567 855.619 535.937 854.867 536.112C854.116 536.287 853.331 536.259 852.594 536.033Z" fill="white"/>
<path opacity="0.17" d="M876.639 543.253C875.898 543.036 875.229 542.625 874.698 542.067C874.167 541.507 873.793 540.816 873.614 540.066L870.839 528.675C870.686 528.068 870.666 527.434 870.78 526.819C870.895 526.203 871.14 525.619 871.501 525.106C871.861 524.588 872.326 524.154 872.867 523.829C873.408 523.506 874.011 523.301 874.638 523.229L875.702 532.716C875.799 533.577 876.146 534.391 876.701 535.056C877.257 535.722 877.994 536.209 878.824 536.458C879.655 536.708 880.539 536.707 881.37 536.458C882.199 536.208 882.937 535.721 883.493 535.054L889.532 527.813C889.974 528.233 890.325 528.738 890.564 529.298C890.803 529.859 890.925 530.461 890.921 531.07C890.921 531.674 890.794 532.271 890.552 532.824C890.308 533.377 889.952 533.873 889.507 534.281L880.919 542.26C880.356 542.787 879.664 543.158 878.912 543.331C878.161 543.506 877.376 543.48 876.639 543.253Z" fill="white"/>
<path opacity="0.17" d="M780.459 514.372C779.719 514.155 779.049 513.744 778.518 513.186C777.987 512.626 777.613 511.935 777.434 511.184L774.661 499.794C774.506 499.187 774.487 498.553 774.6 497.938C774.715 497.322 774.96 496.738 775.321 496.225C775.681 495.707 776.146 495.273 776.687 494.948C777.228 494.625 777.832 494.419 778.459 494.348L779.522 503.834C779.619 504.696 779.966 505.51 780.521 506.175C781.077 506.841 781.815 507.328 782.644 507.577C783.475 507.827 784.359 507.826 785.19 507.577C786.019 507.327 786.757 506.84 787.313 506.173L793.352 498.932C793.794 499.352 794.145 499.857 794.384 500.417C794.623 500.978 794.745 501.58 794.741 502.189C794.741 502.793 794.614 503.39 794.372 503.943C794.128 504.496 793.772 504.992 793.327 505.4L784.74 513.379C784.176 513.906 783.484 514.277 782.732 514.452C781.981 514.625 781.196 514.599 780.459 514.372Z" fill="white"/>
<path opacity="0.17" d="M784.99 542.188C784.249 541.971 783.581 541.561 783.05 541.001C782.519 540.441 782.145 539.751 781.966 539L779.191 527.61C779.038 527.003 779.018 526.37 779.132 525.754C779.247 525.137 779.492 524.553 779.853 524.042C780.212 523.524 780.678 523.088 781.219 522.765C781.76 522.441 782.363 522.236 782.99 522.164L784.054 531.651C784.15 532.512 784.498 533.326 785.053 533.991C785.608 534.656 786.346 535.144 787.176 535.394C788.007 535.642 788.891 535.642 789.72 535.392C790.551 535.144 791.289 534.656 791.843 533.99L797.884 526.749C798.326 527.167 798.677 527.673 798.916 528.233C799.155 528.793 799.277 529.397 799.273 530.006C799.273 530.609 799.146 531.207 798.902 531.76C798.66 532.311 798.304 532.807 797.859 533.215L789.27 541.194C788.708 541.723 788.016 542.093 787.264 542.267C786.512 542.442 785.728 542.414 784.99 542.188Z" fill="white"/>
<path opacity="0.17" d="M809.036 549.409C808.296 549.191 807.626 548.782 807.095 548.222C806.564 547.662 806.19 546.971 806.011 546.221L803.236 534.831C803.083 534.223 803.064 533.591 803.177 532.974C803.292 532.358 803.537 531.774 803.898 531.262C804.257 530.745 804.723 530.309 805.264 529.986C805.805 529.661 806.409 529.457 807.034 529.384L808.099 538.871C808.196 539.732 808.543 540.546 809.098 541.212C809.653 541.877 810.392 542.365 811.221 542.613C812.052 542.863 812.936 542.863 813.767 542.613C814.596 542.363 815.334 541.876 815.89 541.211L821.929 533.969C822.371 534.388 822.722 534.894 822.961 535.454C823.2 536.014 823.322 536.617 823.318 537.226C823.318 537.83 823.191 538.427 822.949 538.979C822.705 539.532 822.349 540.028 821.903 540.436L813.316 548.415C812.753 548.942 812.061 549.313 811.309 549.488C810.557 549.662 809.773 549.635 809.036 549.409Z" fill="white"/>
<path opacity="0.17" d="M833.081 556.629C832.339 556.411 831.671 556.001 831.139 555.441C830.608 554.881 830.235 554.191 830.056 553.44L827.281 542.051C827.128 541.444 827.108 540.81 827.222 540.195C827.336 539.578 827.582 538.994 827.943 538.482C828.302 537.964 828.768 537.529 829.309 537.205C829.85 536.882 830.453 536.677 831.08 536.604L832.144 546.092C832.241 546.952 832.588 547.767 833.143 548.432C833.697 549.097 834.436 549.584 835.266 549.834C836.097 550.083 836.981 550.083 837.81 549.833C838.641 549.584 839.379 549.097 839.933 548.43L845.974 541.189C846.416 541.608 846.767 542.114 847.006 542.674C847.245 543.234 847.367 543.837 847.363 544.447C847.363 545.05 847.236 545.647 846.992 546.2C846.75 546.752 846.394 547.248 845.948 547.656L837.36 555.634C836.798 556.163 836.106 556.534 835.354 556.707C834.602 556.882 833.818 556.855 833.081 556.629Z" fill="white"/>
<path opacity="0.17" d="M857.126 563.85C856.385 563.631 855.716 563.222 855.185 562.662C854.654 562.102 854.28 561.412 854.101 560.661L851.326 549.272C851.173 548.663 851.153 548.031 851.267 547.414C851.382 546.799 851.627 546.215 851.988 545.703C852.347 545.185 852.813 544.749 853.354 544.426C853.895 544.101 854.498 543.897 855.124 543.825L856.189 553.311C856.286 554.173 856.633 554.986 857.188 555.653C857.743 556.318 858.481 556.805 859.311 557.054C860.142 557.304 861.026 557.304 861.857 557.054C862.686 556.804 863.424 556.316 863.979 555.651L870.019 548.41C870.461 548.829 870.812 549.334 871.051 549.894C871.29 550.454 871.412 551.058 871.408 551.666C871.408 552.271 871.281 552.867 871.039 553.42C870.795 553.973 870.439 554.469 869.993 554.877L861.406 562.855C860.843 563.383 860.151 563.753 859.399 563.928C858.647 564.102 857.863 564.076 857.126 563.85Z" fill="white"/>
<path opacity="0.17" d="M789.929 570.127C789.189 569.91 788.519 569.499 787.988 568.939C787.457 568.38 787.085 567.69 786.906 566.939L784.131 555.549C783.978 554.942 783.957 554.308 784.072 553.693C784.186 553.077 784.432 552.493 784.793 551.98C785.152 551.462 785.618 551.028 786.159 550.703C786.699 550.38 787.303 550.174 787.929 550.103L788.994 559.589C789.09 560.451 789.437 561.265 789.992 561.93C790.547 562.596 791.286 563.083 792.116 563.332C792.945 563.582 793.831 563.581 794.66 563.332C795.491 563.082 796.228 562.595 796.783 561.928L802.822 554.687C803.264 555.107 803.615 555.612 803.854 556.172C804.093 556.732 804.215 557.335 804.213 557.944C804.212 558.548 804.086 559.145 803.842 559.698C803.598 560.251 803.244 560.747 802.798 561.155L794.21 569.134C793.648 569.661 792.955 570.032 792.204 570.205C791.452 570.38 790.668 570.354 789.929 570.127Z" fill="white"/>
<path opacity="0.17" d="M813.974 577.348C813.234 577.129 812.565 576.72 812.034 576.16C811.503 575.6 811.128 574.91 810.95 574.159L808.176 562.77C808.023 562.161 808.002 561.529 808.116 560.912C808.231 560.297 808.477 559.713 808.838 559.201C809.197 558.683 809.662 558.247 810.204 557.924C810.745 557.601 811.348 557.395 811.974 557.323L813.038 566.81C813.134 567.671 813.482 568.484 814.037 569.151C814.592 569.816 815.331 570.303 816.161 570.552C816.99 570.802 817.875 570.802 818.705 570.552C819.536 570.302 820.273 569.814 820.828 569.149L826.867 561.908C827.309 562.327 827.66 562.832 827.899 563.392C828.138 563.952 828.26 564.556 828.258 565.164C828.257 565.769 828.131 566.365 827.887 566.918C827.644 567.471 827.287 567.967 826.843 568.375L818.255 576.353C817.693 576.882 817 577.251 816.248 577.426C815.497 577.6 814.713 577.574 813.974 577.348Z" fill="white"/>
<path opacity="0.17" d="M838.019 584.567C837.279 584.35 836.61 583.94 836.079 583.38C835.547 582.82 835.173 582.131 834.995 581.38L832.221 569.989C832.068 569.382 832.048 568.749 832.161 568.133C832.276 567.516 832.522 566.933 832.881 566.421C833.241 565.903 833.707 565.467 834.248 565.144C834.79 564.82 835.393 564.615 836.019 564.543L837.083 574.03C837.179 574.891 837.527 575.705 838.082 576.37C838.637 577.035 839.376 577.523 840.205 577.773C841.035 578.021 841.92 578.021 842.75 577.773C843.579 577.523 844.318 577.035 844.873 576.369L850.913 569.128C851.354 569.546 851.705 570.052 851.944 570.612C852.183 571.172 852.305 571.776 852.302 572.385C852.302 572.988 852.176 573.586 851.932 574.139C851.689 574.69 851.333 575.186 850.887 575.594L842.3 583.573C841.736 584.102 841.045 584.472 840.293 584.646C839.541 584.821 838.757 584.793 838.019 584.567Z" fill="white"/>
<path d="M937.393 507.599L933.674 506.482L932.662 506.177L938.517 490.496L941.144 491.285L937.393 507.599Z" fill="#5A5A5A"/>
<path d="M937.212 507.287L940.853 491.454L938.667 490.798L932.983 506.018L933.745 506.247L937.212 507.287ZM937.574 507.909L933.603 506.717L932.339 506.338L938.368 490.194L941.255 491.061L941.435 491.115L937.574 507.909Z" fill="#5A5A5A"/>
<path d="M938.282 495.298C940.362 495.922 942.553 494.743 943.177 492.665C943.801 490.585 942.622 488.395 940.543 487.769C938.464 487.146 936.273 488.325 935.649 490.404C935.025 492.482 936.204 494.674 938.282 495.298Z" fill="#707070"/>
<path d="M938.353 495.063C940.302 495.648 942.357 494.543 942.942 492.593C943.527 490.646 942.422 488.59 940.473 488.005C938.523 487.419 936.469 488.525 935.884 490.474C935.299 492.423 936.404 494.477 938.353 495.063Z" stroke="#707070"/>
<path d="M899.636 476.41C899.669 476.314 899.701 476.21 899.736 476.092C900.71 472.834 900.353 469.324 898.742 466.331C897.131 463.337 894.398 461.104 891.144 460.123C887.887 459.149 884.376 459.508 881.383 461.119C878.39 462.729 876.157 465.461 875.176 468.716C875.145 468.82 875.112 468.926 875.084 469.035C874.518 466.55 874.606 463.961 875.34 461.521C875.904 459.632 876.841 457.877 878.099 456.36C879.311 454.896 880.795 453.681 882.47 452.783C884.144 451.88 885.976 451.31 887.866 451.105C889.822 450.892 891.801 451.075 893.685 451.642C895.574 452.206 897.328 453.144 898.847 454.401C900.311 455.613 901.526 457.099 902.425 458.774C903.328 460.447 903.898 462.277 904.103 464.167C904.316 466.126 904.133 468.108 903.562 469.994C902.831 472.436 901.478 474.647 899.636 476.41Z" fill="#454545"/>
<path d="M820.917 453.285C820.95 453.188 820.983 453.084 821.018 452.967C821.992 449.71 821.634 446.199 820.023 443.206C818.412 440.213 815.68 437.98 812.425 436.999C809.168 436.025 805.658 436.382 802.664 437.993C799.67 439.605 797.438 442.337 796.456 445.592C796.426 445.695 796.393 445.802 796.366 445.911C795.8 443.426 795.888 440.836 796.621 438.395C797.185 436.508 798.123 434.752 799.38 433.235C800.592 431.771 802.077 430.557 803.752 429.657C805.425 428.755 807.258 428.185 809.148 427.981C811.103 427.767 813.082 427.95 814.966 428.518C816.855 429.081 818.61 430.019 820.128 431.277C821.592 432.489 822.808 433.973 823.707 435.648C824.609 437.321 825.179 439.153 825.384 441.043C825.598 443.002 825.414 444.984 824.844 446.869C824.112 449.312 822.759 451.522 820.917 453.285Z" fill="#454545"/>
<path d="M76.5842 532.182C76.5842 532.182 75.8589 530.049 74.6855 526.084" stroke="#69F0AE" stroke-width="9" stroke-miterlimit="10"/>
<path d="M71.251 513.718C45.3205 413.94 -35.5217 -45.9174 774.884 241.159" stroke="#69F0AE" stroke-width="9" stroke-miterlimit="10" stroke-dasharray="12.04 12.04"/>
<path d="M780.952 243.292L786.98 245.423" stroke="#69F0AE" stroke-width="9" stroke-miterlimit="10"/>
<path d="M261.82 622.217C261.82 622.217 225.468 706.049 416.54 728.414V813.183H637.434V588.681L258.983 578.436L261.82 622.217Z" fill="#FFD4CC"/>
<path d="M365.65 268.108C360.296 276.552 351.816 282.534 342.062 284.749C332.309 286.965 322.076 285.232 313.596 279.931L203.313 207.324C194.866 201.974 188.88 193.499 186.663 183.752C184.447 174.005 186.18 163.777 191.485 155.303C196.838 146.86 205.318 140.878 215.071 138.662C224.825 136.447 235.058 138.18 243.538 143.481L353.799 216.098C362.247 221.445 368.236 229.916 370.457 239.661C372.676 249.406 370.948 259.633 365.65 268.108Z" fill="#FFD1C8"/>
<path d="M595.493 683.704C641.307 683.704 678.447 646.587 678.447 600.801C678.447 555.014 641.307 517.897 595.493 517.897C549.678 517.897 512.538 555.014 512.538 600.801C512.538 646.587 549.678 683.704 595.493 683.704Z" fill="#FFD4CC"/>
<path d="M580.559 54H262.781C255.564 54 249.714 59.8466 249.714 67.0586V661.319C249.714 668.53 255.564 674.377 262.781 674.377H580.559C587.776 674.377 593.626 668.53 593.626 661.319V67.0586C593.626 59.8466 587.776 54 580.559 54Z" fill="url(#paint0_linear)"/>
<path d="M574.426 62.3895H268.913C260.879 62.3895 254.364 68.8995 254.364 76.9299V651.468C254.364 659.499 260.879 666.009 268.913 666.009H574.426C582.461 666.009 588.976 659.499 588.976 651.468V76.9299C588.976 68.8995 582.461 62.3895 574.426 62.3895Z" fill="white"/>
<path d="M505.734 77.5163C504.765 83.9176 501.538 89.7614 496.633 93.9907C491.728 98.2199 485.47 100.555 478.993 100.574H363.43C356.954 100.553 350.7 98.2162 345.797 93.9873C340.895 89.7583 337.668 83.9158 336.7 77.5163H275.474C273.805 77.5148 272.151 77.8423 270.609 78.4796C269.066 79.1171 267.664 80.0521 266.484 81.2311C265.303 82.4102 264.367 83.8104 263.727 85.3514C263.087 86.8924 262.759 88.5443 262.759 90.2125V638.144C262.758 639.812 263.085 641.464 263.723 643.005C264.361 644.547 265.296 645.948 266.476 647.128C267.656 648.308 269.057 649.244 270.599 649.882C272.14 650.522 273.794 650.85 275.463 650.85H567.877C569.546 650.851 571.2 650.524 572.742 649.887C574.284 649.25 575.686 648.314 576.867 647.135C578.048 645.956 578.984 644.556 579.624 643.015C580.262 641.474 580.592 639.823 580.592 638.154V90.2232C580.593 88.5549 580.266 86.9028 579.627 85.3612C578.99 83.8197 578.055 82.4188 576.875 81.2387C575.694 80.0586 574.294 79.1224 572.752 78.4837C571.209 77.845 569.557 77.5163 567.888 77.5163H505.734Z" fill="#374897"/>
<path d="M457.296 84.7437H386.993C385.814 84.7437 384.86 85.6984 384.86 86.8758V87.2703C384.86 88.4477 385.814 89.4022 386.993 89.4022H457.296C458.474 89.4022 459.43 88.4477 459.43 87.2703V86.8758C459.43 85.6984 458.474 84.7437 457.296 84.7437Z" fill="#DBDBDB"/>
<path d="M475.27 89.4023C476.813 89.4023 478.065 88.1519 478.065 86.6094C478.065 85.0668 476.813 83.8164 475.27 83.8164C473.726 83.8164 472.476 85.0668 472.476 86.6094C472.476 88.1519 473.726 89.4023 475.27 89.4023Z" fill="#DBDBDB"/>
<path d="M628.967 360.792C624.273 340.491 604.001 327.836 583.687 332.528C563.375 337.218 550.713 357.478 555.406 377.778L606.272 597.795C610.966 618.096 631.238 630.751 651.55 626.061C671.863 621.369 684.526 601.11 679.832 580.809L628.967 360.792Z" fill="#FFD4CC"/>
<path d="M669.573 793.974H370.908V851.538H669.573V793.974Z" fill="#6377D5"/>
<path d="M492.112 248.419L467.643 230.009L478.31 216.151L460.507 202.186L449.382 216.279L424.219 197.358C423.261 196.638 422.095 196.25 420.896 196.25C419.698 196.25 418.532 196.638 417.574 197.358L350.876 246.98C348.347 249.113 345.979 251.553 345.959 257.14H345.884L345.713 333.595V336.994C345.71 338.089 345.923 339.174 346.34 340.187C346.757 341.199 347.369 342.119 348.141 342.896C348.913 343.672 349.832 344.288 350.842 344.71C351.853 345.131 352.937 345.35 354.033 345.352H357.318L420.561 345.491L487.098 345.641C488.194 345.643 489.279 345.429 490.293 345.014C491.306 344.598 492.226 343.986 493.004 343.213C493.78 342.441 494.396 341.524 494.819 340.514C495.24 339.503 495.458 338.42 495.461 337.325L495.643 257.608H495.782C495.782 252.012 494.64 250.552 492.112 248.419Z" fill="url(#paint1_linear)"/>
<path d="M489.21 258.771C489.21 253.675 488.145 252.374 485.861 250.402L423.921 203.849C423.045 203.193 421.98 202.838 420.886 202.838C419.792 202.838 418.726 203.193 417.851 203.849L356.998 249.133C355.534 250.179 354.357 251.575 353.575 253.193C352.791 254.812 352.428 256.602 352.518 258.398H352.454L352.294 328.157V331.259C352.292 333.276 353.089 335.212 354.513 336.641C355.938 338.07 357.871 338.876 359.889 338.882H362.887L420.592 339.01L481.297 339.147C483.315 339.151 485.25 338.353 486.681 336.93C488.111 335.507 488.917 333.575 488.923 331.558L489.082 258.824L489.21 258.771Z" fill="url(#paint2_linear)"/>
<path d="M353.573 258.676L487.79 258.981L487.622 332.781C487.621 333.366 487.505 333.946 487.279 334.485C487.054 335.026 486.724 335.516 486.309 335.929C485.895 336.341 485.403 336.668 484.861 336.892C484.32 337.114 483.739 337.228 483.154 337.227L358.355 336.944C357.05 336.941 355.801 336.42 354.882 335.497C353.961 334.573 353.447 333.322 353.449 332.018L353.616 258.676H353.573Z" fill="#6C63FF"/>
<path opacity="0.2" d="M353.573 258.676L487.79 258.981L487.622 332.781C487.621 333.366 487.505 333.946 487.279 334.485C487.054 335.026 486.724 335.516 486.309 335.929C485.895 336.341 485.403 336.668 484.861 336.892C484.32 337.114 483.739 337.228 483.154 337.227L358.355 336.944C357.05 336.941 355.801 336.42 354.882 335.497C353.961 334.573 353.447 333.322 353.449 332.018L353.616 258.676H353.573Z" fill="white"/>
<path d="M353.585 258.653L353.436 326.441C353.433 327.809 353.7 329.164 354.221 330.429C354.742 331.692 355.507 332.843 356.473 333.812C357.439 334.781 358.586 335.551 359.849 336.076C361.113 336.602 362.467 336.875 363.836 336.877L477.211 337.133" fill="#F5F5F5"/>
<path d="M487.814 258.952L487.664 326.782C487.662 328.15 487.389 329.503 486.863 330.767C486.337 332.029 485.567 333.176 484.596 334.14C483.627 335.105 482.477 335.871 481.211 336.391C479.946 336.912 478.59 337.179 477.221 337.175L363.846 336.919" fill="white"/>
<path d="M417.841 205.619L358.108 249.645C356.673 250.654 355.516 252.008 354.746 253.583C353.976 255.158 353.617 256.902 353.702 258.653L487.984 259.079C487.984 254.123 486.917 252.822 484.699 250.946L423.846 205.64C422.982 204.988 421.93 204.633 420.847 204.629C419.764 204.625 418.709 204.973 417.841 205.619Z" fill="#6C63FF"/>
<path opacity="0.2" d="M417.841 205.619L358.108 249.645C356.673 250.654 355.516 252.008 354.746 253.583C353.976 255.158 353.617 256.902 353.702 258.653L487.984 259.079C487.984 254.123 486.917 252.822 484.699 250.946L423.846 205.64C422.982 204.988 421.93 204.633 420.847 204.629C419.764 204.625 418.709 204.973 417.841 205.619Z" fill="#6377D5"/>
<path d="M473.274 220.938L457.03 208.21L417.766 257.908L396.668 241.554L383.451 258.344L414.161 281.786L421.776 287.894L473.274 220.938Z" fill="url(#paint3_linear)"/>
<path d="M472.08 220.629L457.36 209.351L418.352 260.189L396.688 243.59L385.393 258.301L414.417 280.518L421.862 286.092L472.08 220.629Z" fill="white"/>
<path d="M341.393 380.808C336.04 389.25 327.56 395.233 317.807 397.449C308.053 399.664 297.82 397.932 289.34 392.63L194.93 331.195C186.482 325.845 180.496 317.37 178.279 307.623C176.063 297.876 177.796 287.648 183.1 279.174C188.454 270.731 196.934 264.748 206.688 262.534C216.441 260.318 226.674 262.051 235.154 267.352L329.565 328.786C338.012 334.136 343.998 342.611 346.215 352.358C348.431 362.106 346.698 372.333 341.393 380.808Z" fill="#FFD1C8"/>
<path d="M302.236 598.797C296.882 607.24 288.402 613.223 278.649 615.437C268.896 617.653 258.662 615.92 250.183 610.619L204.242 577.124C195.793 571.774 189.807 563.299 187.591 553.553C185.375 543.806 187.108 533.577 192.413 525.104C197.767 516.66 206.246 510.678 215.999 508.463C225.752 506.247 235.987 507.98 244.466 513.281L290.407 546.776C298.855 552.126 304.841 560.601 307.057 570.348C309.274 580.095 307.541 590.323 302.236 598.797Z" fill="#FFD1C8"/>
<path d="M530.469 398.93H312.871V463.956H530.469V398.93Z" fill="url(#paint4_linear)"/>
<path d="M523.002 405.326H320.338V452.23H523.002V405.326Z" fill="#FFDB6D"/>
<path d="M484.623 470.379H349.451V482.448H484.623V470.379Z" fill="#F5F5F5"/>
<path d="M484.623 470.379H349.451V482.448H484.623V470.379Z" fill="#F5F5F5"/>
<path d="M484.623 470.379H349.451V482.448H484.623V470.379Z" fill="white"/>
<path d="M472.554 495.724H349.451V507.793H472.554V495.724Z" fill="#F5F5F5"/>
<path d="M472.554 495.724H349.451V507.793H472.554V495.724Z" fill="#F5F5F5"/>
<path d="M472.554 495.724H349.451V507.793H472.554V495.724Z" fill="white"/>
<path d="M397.726 519.862H349.451V531.931H397.726V519.862Z" fill="#F5F5F5"/>
<path d="M397.726 519.862H349.451V531.931H397.726V519.862Z" fill="#F5F5F5"/>
<path d="M397.726 519.862H349.451V531.931H397.726V519.862Z" fill="white"/>
<path d="M459.278 519.862H411.002V531.931H459.278V519.862Z" fill="#F5F5F5"/>
<path d="M459.278 519.862H411.002V531.931H459.278V519.862Z" fill="#F5F5F5"/>
<path d="M459.278 519.862H411.002V531.931H459.278V519.862Z" fill="white"/>
<path d="M430.313 544H349.451V556.069H430.313V544Z" fill="#F5F5F5"/>
<path d="M430.313 544H349.451V556.069H430.313V544Z" fill="#F5F5F5"/>
<path d="M430.313 544H349.451V556.069H430.313V544Z" fill="white"/>
<path d="M899.587 282.682L903.416 283.278L902.819 282.713H903.139L902.638 282.543L833.208 216.738L816.355 243.314L802.34 267.554L808.835 268.567L805.956 281.7L899.587 282.682Z" fill="url(#paint5_linear)"/>
<path d="M819.268 244.699L806.467 266.883L900.334 282.159L839.875 240.083L819.268 244.699Z" fill="#374897"/>
<path opacity="0.2" d="M819.268 244.699L806.467 266.883L900.334 282.159L839.875 240.083L819.268 244.699Z" fill="#374897"/>
<path d="M834.681 220.394L900.334 282.159L819.268 244.699L834.681 220.394Z" fill="#6377D5"/>
<path d="M809.924 279.92L900.078 281.636L815.919 251.767L809.924 279.92Z" fill="#6377D5"/>
<path d="M321.809 489.808C316.455 498.25 307.976 504.233 298.223 506.449C288.47 508.663 278.235 506.931 269.757 501.629L194.92 453.233C186.471 447.882 180.485 439.408 178.269 429.66C176.052 419.913 177.785 409.686 183.091 401.211C188.436 392.759 196.911 386.766 206.665 384.54C216.419 382.316 226.657 384.039 235.143 389.336L309.98 437.733C318.443 443.084 324.44 451.569 326.657 461.329C328.874 471.089 327.13 481.329 321.809 489.808Z" fill="#FFD1C8"/>
</g>
</g>
<defs>
<linearGradient id="paint0_linear" x1="187649" y1="405945" x2="187649" y2="44910.7" gradientUnits="userSpaceOnUse">
<stop stop-color="#808080" stop-opacity="0.25"/>
<stop offset="0.54" stop-color="#808080" stop-opacity="0.12"/>
<stop offset="1" stop-color="#808080" stop-opacity="0.1"/>
</linearGradient>
<linearGradient id="paint1_linear" x1="420.742" y1="345.63" x2="420.742" y2="196.238" gradientUnits="userSpaceOnUse">
<stop stop-opacity="0.12"/>
<stop offset="0.55" stop-opacity="0.09"/>
<stop offset="1" stop-opacity="0.02"/>
</linearGradient>
<linearGradient id="paint2_linear" x1="74923.8" y1="46529" x2="74923.8" y2="29100.5" gradientUnits="userSpaceOnUse">
<stop stop-color="#808080" stop-opacity="0.25"/>
<stop offset="0.54" stop-color="#808080" stop-opacity="0.12"/>
<stop offset="1" stop-color="#808080" stop-opacity="0.1"/>
</linearGradient>
<linearGradient id="paint3_linear" x1="49643" y1="23506.4" x2="49656.5" y2="17543.7" gradientUnits="userSpaceOnUse">
<stop stop-opacity="0.12"/>
<stop offset="0.55" stop-opacity="0.09"/>
<stop offset="1" stop-opacity="0.02"/>
</linearGradient>
<linearGradient id="paint4_linear" x1="75858.7" y1="25406.3" x2="75858.7" y2="21439.6" gradientUnits="userSpaceOnUse">
<stop stop-opacity="0.12"/>
<stop offset="0.55" stop-opacity="0.09"/>
<stop offset="1" stop-opacity="0.02"/>
</linearGradient>
<linearGradient id="paint5_linear" x1="70664" y1="70613.8" x2="72983.6" y2="66950.6" gradientUnits="userSpaceOnUse">
<stop stop-color="#808080" stop-opacity="0.25"/>
<stop offset="0.54" stop-color="#808080" stop-opacity="0.12"/>
<stop offset="1" stop-color="#808080" stop-opacity="0.1"/>
</linearGradient>
<clipPath id="clip0">
<rect width="1024" height="894" fill="white"/>
</clipPath>
<clipPath id="clip1">
<rect width="1039.14" height="805" fill="white" transform="translate(51.3471 54)"/>
</clipPath>
</defs>
</svg>
